<?xml version="1.0" encoding="UTF-8" standalone="no"?>
<svg
   version="1.1"
   viewBox="0 0 591.01483 591.0148"
   id="svg7433"
   sodipodi:docname="MoonwardsLogo_26.svg"
   inkscape:version="1.4.2 (f4327f4, 2025-05-13)"
   inkscape:export-filename="MoonwardsLogo_26_1200px.png"
   inkscape:export-xdpi="194.91896"
   inkscape:export-ydpi="194.91896"
   width="591.01483"
   height="591.01483"
   xmlns:inkscape="http://www.inkscape.org/namespaces/inkscape"
   xmlns:sodipodi="http://sodipodi.sourceforge.net/DTD/sodipodi-0.dtd"
   xmlns="http://www.w3.org/2000/svg"
   xmlns:svg="http://www.w3.org/2000/svg"
   xmlns:rdf="http://www.w3.org/1999/02/22-rdf-syntax-ns#"
   xmlns:cc="http://creativecommons.org/ns#"
   xmlns:dc="http://purl.org/dc/elements/1.1/">
  <defs
     id="defs7437" />
  <sodipodi:namedview
     pagecolor="#ffffff"
     bordercolor="#666666"
     borderopacity="1"
     objecttolerance="10"
     gridtolerance="10"
     guidetolerance="10"
     inkscape:pageopacity="0"
     inkscape:pageshadow="2"
     inkscape:window-width="2187"
     inkscape:window-height="1011"
     id="namedview7435"
     showgrid="false"
     inkscape:zoom="1.1474978"
     inkscape:cx="203.48623"
     inkscape:cy="294.55394"
     inkscape:window-x="209"
     inkscape:window-y="7"
     inkscape:window-maximized="0"
     inkscape:current-layer="layer1"
     showborder="false"
     inkscape:pagecheckerboard="true"
     fit-margin-top="0"
     fit-margin-left="0"
     fit-margin-right="0"
     fit-margin-bottom="0"
     inkscape:showpageshadow="0"
     inkscape:deskcolor="#d1d1d1" />
  <metadata
     id="metadata7363">
    <rdf:RDF>
      <cc:Work
         rdf:about="">
        <dc:format>image/svg+xml</dc:format>
        <dc:type
           rdf:resource="http://purl.org/dc/dcmitype/StillImage" />
      </cc:Work>
    </rdf:RDF>
  </metadata>
  <g
     inkscape:groupmode="layer"
     id="layer22"
     inkscape:label="Black test"
     style="display:none"
     transform="translate(14.026526,-597.92898)">
    <rect
       style="opacity:1;fill:#000000;fill-opacity:1;stroke:none;stroke-width:14.296;stroke-linecap:round;stroke-linejoin:round;stroke-miterlimit:4;stroke-dasharray:none;stroke-dashoffset:0;stroke-opacity:1"
       id="rect6311"
       width="2680.9963"
       height="1340.4982"
       x="-1125.4542"
       y="140.76112" />
  </g>
  <g
     inkscape:groupmode="layer"
     id="layer20"
     inkscape:label="Icon Moon"
     style="display:none"
     transform="translate(14.026526,-597.92898)">
    <circle
       inkscape:export-ydpi="280.15286"
       inkscape:export-xdpi="280.15286"
       style="display:inline;fill:#000000;fill-opacity:1;fill-rule:evenodd;stroke:#464646;stroke-width:14.2942;stroke-miterlimit:4;stroke-dasharray:none;stroke-opacity:1"
       id="circle6282"
       r="168.3"
       cy="1610.0255"
       cx="137.07625" />
    <g
       inkscape:export-ydpi="280.15286"
       inkscape:export-xdpi="280.15286"
       id="g6292"
       transform="translate(-25.477937,1213.5509)"
       style="display:inline;fill:#e5e5df;fill-opacity:1">
      <path
         sodipodi:nodetypes="ccccc"
         style="fill:#e5e5df;fill-opacity:1"
         inkscape:connector-curvature="0"
         id="path6290"
         d="m 0.4979,396.38 c -0.095258,87.77 70.109,155.84 154.94,155.55 C 97.740685,544.28215 42.579515,492.44336 42.619515,400.52036 42.661045,306.23436 97.4589,248.42828 155.4379,242.31 72.5199,242.60564 0.5879,309.416 0.4979,396.38 Z" />
    </g>
  </g>
  <g
     style="display:none;opacity:1"
     inkscape:label="City Lights copy 1"
     id="g6266"
     inkscape:groupmode="layer"
     transform="translate(14.026526,-597.92898)">
    <g
       id="g890"
       style="fill:#ffff59;fill-opacity:1;stroke:#ffff59;stroke-width:5;stroke-miterlimit:4;stroke-dasharray:none;stroke-opacity:1"
       inkscape:export-xdpi="280.15286"
       inkscape:export-ydpi="280.15286">
      <circle
         style="display:inline;fill:#ffff59;fill-opacity:1;stroke:#ffff59;stroke-width:5;stroke-linejoin:round;stroke-miterlimit:4;stroke-dasharray:none;stroke-opacity:1"
         id="circle6244"
         r="18.767681"
         cy="1643.8843"
         cx="139.87402"
         inkscape:export-xdpi="72.181297"
         inkscape:export-ydpi="72.181297" />
      <circle
         style="display:inline;fill:#ffff59;fill-opacity:1;stroke:#ffff59;stroke-width:5;stroke-linejoin:round;stroke-miterlimit:4;stroke-dasharray:none;stroke-opacity:1"
         id="circle6246"
         r="10.065322"
         cy="1542.6064"
         cx="79.859795"
         inkscape:export-xdpi="72.181297"
         inkscape:export-ydpi="72.181297" />
      <circle
         style="display:inline;fill:#ffff59;fill-opacity:1;stroke:#ffff59;stroke-width:5;stroke-linejoin:round;stroke-miterlimit:4;stroke-dasharray:none;stroke-opacity:1"
         id="circle6248"
         r="11.319475"
         cy="1547.4727"
         cx="135.97714"
         inkscape:export-xdpi="72.181297"
         inkscape:export-ydpi="72.181297" />
      <circle
         style="display:inline;fill:#ffff59;fill-opacity:1;stroke:#ffff59;stroke-width:5;stroke-linejoin:round;stroke-miterlimit:4;stroke-dasharray:none;stroke-opacity:1"
         id="circle6250"
         r="8.4082222"
         cy="1603.5625"
         cx="178.31166"
         inkscape:export-xdpi="72.181297"
         inkscape:export-ydpi="72.181297" />
      <path
         style="display:inline;fill:#ffff59;fill-opacity:1;stroke:#ffff59;stroke-width:5;stroke-linejoin:round;stroke-miterlimit:4;stroke-dasharray:none;stroke-opacity:1"
         d="m 235.59498,1575.6534 a 15.074888,15.074888 0 0 0 -15.07604,15.0761 15.074888,15.074888 0 0 0 15.07604,15.0731 15.074888,15.074888 0 0 0 15.07604,-15.0731 15.074888,15.074888 0 0 0 -15.07604,-15.0761 z"
         id="path6252"
         inkscape:connector-curvature="0" />
      <path
         inkscape:connector-curvature="0"
         d="m 145.21025,1714.0771 a 5.7042999,5.7042999 0 0 1 -5.7043,5.7043 5.7042999,5.7042999 0 0 1 -5.7043,-5.7043 5.7042999,5.7042999 0 0 1 5.7043,-5.7043 5.7042999,5.7042999 0 0 1 5.7043,5.7043 z m -11.21231,14.7 a 8.2819996,8.2819996 0 0 1 -8.282,8.282 8.2819996,8.2819996 0 0 1 -8.282,-8.282 8.2819996,8.2819996 0 0 1 8.282,-8.282 8.2819996,8.2819996 0 0 1 8.282,8.282 z"
         style="display:inline;fill:#ffff59;fill-opacity:1;stroke:#ffff59;stroke-width:5;stroke-linejoin:round;stroke-miterlimit:4;stroke-dasharray:none;stroke-opacity:1"
         id="path6254" />
      <circle
         style="display:inline;fill:#ffff59;fill-opacity:1;stroke:#ffff59;stroke-width:5;stroke-linejoin:round;stroke-miterlimit:4;stroke-dasharray:none;stroke-opacity:1"
         id="circle6256"
         cy="1694.0415"
         cx="219.67676"
         inkscape:export-xdpi="72.181297"
         inkscape:export-ydpi="72.181297"
         r="8.4987831" />
      <circle
         style="display:inline;fill:#ffff59;fill-opacity:1;stroke:#ffff59;stroke-width:5;stroke-linejoin:round;stroke-miterlimit:4;stroke-dasharray:none;stroke-opacity:1"
         id="circle6258"
         r="8.0623064"
         cy="1682.0369"
         cx="68.539459"
         inkscape:export-xdpi="72.181297"
         inkscape:export-ydpi="72.181297" />
      <circle
         style="display:inline;fill:#ffff59;fill-opacity:1;stroke:#ffff59;stroke-width:5;stroke-linejoin:round;stroke-miterlimit:4;stroke-dasharray:none;stroke-opacity:1"
         id="circle6260"
         r="12.495997"
         cy="1492.2556"
         cx="116.15087"
         inkscape:export-xdpi="72.181297"
         inkscape:export-ydpi="72.181297" />
      <circle
         style="opacity:1;fill:#ffff59;fill-opacity:1;stroke:#ffff59;stroke-width:5;stroke-linecap:round;stroke-linejoin:round;stroke-miterlimit:4;stroke-dasharray:none;stroke-dashoffset:0;stroke-opacity:1"
         id="circle6262"
         cx="152.18605"
         cy="1586.5786"
         r="15.126933" />
      <circle
         r="17.019678"
         cy="1522.7197"
         cx="193.48579"
         id="circle6264"
         style="opacity:1;fill:#ffff59;fill-opacity:1;stroke:#ffff59;stroke-width:5;stroke-linecap:round;stroke-linejoin:round;stroke-miterlimit:4;stroke-dasharray:none;stroke-dashoffset:0;stroke-opacity:1" />
    </g>
  </g>
  <g
     style="display:inline"
     inkscape:label="NewMoon"
     id="g6012"
     inkscape:groupmode="layer"
     transform="translate(14.026526,-597.92898)">
    <circle
       cx="281.4809"
       cy="893.4364"
       r="289.74362"
       id="circle5964"
       style="display:inline;fill:#3c453e;fill-opacity:1;fill-rule:evenodd;stroke:#797970;stroke-width:11.5276;stroke-opacity:1"
       inkscape:export-xdpi="300"
       inkscape:export-ydpi="300" />
    <g
       style="display:inline;fill:#000000;fill-opacity:1"
       inkscape:label="contours"
       id="g5970"
       transform="matrix(0.97690887,0,0,0.97690887,76.621562,659.55703)"
       inkscape:export-xdpi="300"
       inkscape:export-ydpi="300">
      <g
         id="g5968"
         style="fill:#000000;fill-opacity:1">
        <path
           inkscape:export-ydpi="300"
           inkscape:export-xdpi="300"
           sodipodi:nodetypes="cccscccccccccccccccccccccccccccccccccccccccccccccccccccccccccccscccccccccccccccccccccccccccccscccccczzsszssszccccccccccccccccccccczcccccc"
           inkscape:connector-curvature="0"
           id="path5966"
           transform="scale(0.26458333)"
           d="m 808.38086,-73.158203 c -9.85161,0.08135 -20.01063,0.842451 -30.13672,2.257812 -55.8166,7.800102 -98.37964,33.337928 -95.06836,57.041016 3.31134,23.7038738 51.24595,36.596735 107.06445,28.796875 55.81904,-7.7999195 98.38388,-33.339174 95.07032,-57.042969 -2.6296,-18.817876 -33.81867,-31.40737 -76.92969,-31.052734 z M 1005.2949,49.019531 c -80.25099,-1.51e-4 -145.30767,34.961768 -145.30857,78.089849 0.0758,29.76587 31.63218,56.91991 81.36914,70.01757 -17.79374,4.4956 -35.00047,10.72973 -51.18555,18.54493 -9.47191,-22.19542 -42.55631,-30.06556 -74.57617,-17.74024 -32.60187,12.56437 -51.8693,41.3326 -43.03516,64.25586 4.60815,11.89836 16.26362,20.41554 32.00391,23.38672 -24.09925,34.0533 -33.33088,72.32439 -26.16211,108.45898 10.22469,50.62978 51.56826,91.8158 111.2207,110.79688 C 858.55283,515.048 838.26973,539.19542 838.24023,566 c 0.0338,7.28769 1.5753,14.52096 4.5625,21.4082 -44.49242,4.23126 -77.66008,30.53331 -77.71093,61.625 -4e-4,34.39381 40.27318,62.27559 89.95312,62.27539 49.67918,-5.5e-4 89.95157,-27.88211 89.95117,-62.27539 -0.0346,-6.3558 -1.47449,-12.67048 -4.26953,-18.72461 37.26177,-7.16232 63.53544,-33.73707 63.58004,-64.30859 -0.018,-19.24469 -10.52894,-37.5316 -28.79879,-50.10156 14.00439,-0.61195 28.04209,-2.31775 41.90239,-5.0918 9.5135,-1.96567 18.9101,-4.42919 28.123,-7.37305 -3.6884,8.41163 -5.6163,17.63307 -5.6406,26.98047 -3e-4,34.39356 25.2257,62.27524 56.3437,62.27539 6.1156,-0.0264 12.1866,-1.15314 17.9746,-3.33593 1.5031,4.47287 3.1927,8.88163 5.0645,13.21484 -2.7742,11.33503 -4.203,22.94663 -4.2578,34.60352 4e-4,83.52619 69.0391,151.23754 154.2031,151.23828 85.1647,3.5e-4 154.2047,-67.71132 154.2051,-151.23828 -0.048,-4.8132 -0.3302,-9.62141 -0.8457,-14.40821 4.5064,-7.38882 8.4396,-15.10845 11.7656,-23.09179 16.6723,12.18259 36.6769,21.21453 58.0234,26.19726 11.5144,2.65624 23.2474,4.09558 34.8516,4.27539 6.4152,36.66065 28.8252,70.91894 61.9141,94.64844 66.1926,47.38334 155.8592,40.37035 200.2773,-15.66406 44.4179,-56.03517 26.7664,-139.87309 -39.4258,-187.25782 -39.1376,-27.98802 -88.6147,-38.04208 -132.5429,-26.93359 -18.7996,-23.97033 -48.9142,-42.13327 -83.0567,-50.09375 -38.3339,-8.85061 -77.509,-3.88522 -105.832,13.41406 -29.1767,-57.01451 -88.0725,-92.9213 -152.4141,-92.92187 -33.4553,0.0324 -66.1663,9.82058 -94.082,28.15234 12.5737,-27.04895 16.3499,-55.44514 10.9687,-82.48242 -10.9115,-54.01415 -57.1611,-97.03248 -122.6679,-114.09766 49.1676,-13.23258 80.2242,-40.24722 80.2422,-69.79882 -9e-4,-43.127688 -65.0564,-78.089445 -145.3067,-78.089849 z M 420.25195,137.57422 c -4.39777,0.0337 -9.00427,0.8853 -13.39648,2.47656 -14.48014,5.24593 -23.18991,17.09594 -19.45313,26.4668 1.82328,4.54685 6.39323,7.87755 12.6836,9.24414 -20.00533,4.00896 -39.59108,10.04692 -58.42578,18.01172 -60.01841,25.5712 -110.01783,69.72484 -141.81055,125.23047 -4.28757,-7.80336 -10.35867,-13.15222 -17.55078,-15.46289 -21.71001,-6.88432 -48.0122,14.97748 -58.74805,48.83007 -10.73623,33.85276 -1.84055,66.87776 19.86914,73.76368 6.64701,2.08158 14.01345,1.50573 21.41211,-1.67383 -0.93342,8.14913 -1.49192,16.32061 -1.67383,24.49023 -3.63626,-0.3316 -7.28244,-0.52573 -10.93164,-0.58203 -85.164418,7.9e-4 -154.2033612,73.46615 -154.2031225,164.08984 0.065808,29.08925 7.3975552,57.63702 21.2441405,82.71875 -126.222218,52.76067 -210.872538,195.62738 -211.035158,356.16997 -6e-5,100.1466 33.11777,196.1916 92.067933,267.006 58.950162,70.8144 138.903766,110.5975 222.271917,110.5975 66.06648,-0.1675 130.40953,-25.3363 183.89062,-71.9317 5.24885,33.362 32.16901,66.9905 70.125,87.5996 18.77076,10.1394 39.12943,16.4816 58.89649,18.3477 -36.01588,1.1549 -66.12512,20.911 -77.42579,50.8027 -16.16615,42.9141 10.90141,92.8361 60.45703,111.5039 38.7687,14.5754 81.25516,5.9445 105.34571,-21.4004 23.18512,42.7786 78.18462,62.166 130.42969,45.9766 48.0631,-14.9446 81.51122,-56.3141 81.95117,-101.3594 22.97768,0.6711 46.433,-3.1234 68.68359,-11.1113 83.20889,-30.0946 130.17339,-110.5589 104.89844,-179.7227 -11.74114,-32.0361 -37.81259,-57.498 -72.84766,-71.1445 19.97871,-12.0613 34.22651,-30.386 40.35352,-51.9004 14.67928,-51.8082 -20.57392,-108.1442 -78.74024,-125.8301 -58.16604,-17.6857 -117.2188,9.9755 -131.89843,61.7833 -11.99403,42.5628 9.66934,89.534 52.77734,114.4335 -2.03461,0.605 -4.05975,1.2438 -6.07422,1.9161 -78.4846,28.4451 -125.45721,102.2105 -107.94726,169.5195 -3.46303,0.7546 -6.89589,1.6547 -10.28711,2.6973 -28.30409,8.7905 -52.39925,27.1057 -67.06641,50.9785 -11.72543,-17.9832 -29.80914,-32.242 -51.03711,-40.2422 -8.48635,-3.1802 -17.31969,-5.3022 -26.23633,-6.3027 31.59633,-0.7946 56.83998,-13.9736 68.75,-35.8926 21.85189,-40.3167 -6.73451,-98.0955 -63.84961,-129.0528 -27.05462,-14.6567 -57.08445,-21.2461 -83.65039,-18.3554 29.42414,-46.1125 49.59324,-99.7595 58.9375,-156.7657 6.81756,30.8097 30.40001,53.343 58.65235,56.043 -4.00689,4.499 -7.65541,9.3419 -10.89454,14.461 -27.6724,43.8626 -20.16274,98.311 16.77344,121.6152 36.93759,23.304 89.31517,6.637 116.98828,-37.2266 27.6724,-43.8626 20.16275,-98.311 -16.77343,-121.6152 -13.1819,-8.2905 -28.97895,-11.776 -45.41016,-10.0195 7.2375,-12.1553 11.10577,-26.4332 11.11914,-41.0411 -0.0256,-14.9759 -4.10232,-29.592 -11.69336,-41.9238 20.18063,-6.0015 38.4528,-14.7591 53.75,-25.7617 16.55083,9.9647 35.49545,15.2516 54.81445,15.2969 58.96093,5e-4 106.95026,-58.25557 106.75782,-106.75784 -0.19244,-48.50227 -50.83999,-85.84526 -64.88363,-89.7188 -14.04364,-3.87354 -22.77938,-7.85394 -23.25058,-12.77451 -0.48955,-5.11216 0.514,-10.44264 6.3294,-13.33044 40.37986,-20.05176 79.92926,-56.84503 63.98592,-102.43213 -15.94335,-45.58711 -89.00801,-41.21243 -167.12421,-32.09167 -7.74888,0.90475 -17.33284,0.64475 -18.27387,-6.40822 -0.44221,-3.31443 -3.88002,-6.8692 12.73907,-17.45523 C 668.68868,612.43363 752.02168,446.48463 713.68945,332.39062 675.35722,218.29661 550.24119,157.36262 425.72852,171.5918 c 11.40192,-6.05084 17.27759,-16.07681 14.10742,-24.07227 -2.47359,-6.20513 -9.98385,-10.01906 -19.58399,-9.94531 z m 1090.76175,29.25586 c -21.8331,-0.62177 -40.3318,6.53573 -52.2305,20.20898 -27.8738,32.03382 -12.934,90.66433 33.3691,130.95508 46.3028,40.29149 106.4357,46.98624 134.3106,14.95313 27.8753,-32.03375 12.9353,-90.66578 -33.3691,-130.95704 -24.7277,-21.51631 -54.7652,-34.3833 -82.0801,-35.16015 z M 1119.9785,466.375 c -0.9282,2.09334 -1.8138,4.2051 -2.6562,6.33398 -1.3334,-0.60272 -2.6873,-1.14869 -4.0586,-1.63671 2.2745,-1.53302 4.5132,-3.09911 6.7148,-4.69727 z m 272.8047,298.31055 c -47.4969,-6.6e-4 -86.0009,34.07772 -86,76.11523 3e-4,42.03675 38.5039,76.11394 86,76.11328 47.4953,-3.1e-4 85.9977,-34.07722 85.998,-76.11328 9e-4,-42.03682 -38.5019,-76.11492 -85.998,-76.11523 z m -594.41015,68.70898 c -32.19968,12.08835 -49.74728,44.67651 -39.19336,72.78711 10.55355,28.11014 45.2112,41.09824 77.41015,29.00977 32.19854,-12.08828 52.17459,-46.87644 39.19336,-72.78516 -12.98123,-25.90872 -48.14166,-39.77772 -77.41015,-29.01172 z m 724.89065,18.2793 c -40.9441,4e-5 -74.136,35.84677 -74.1367,80.0664 -3e-4,44.2204 33.1919,80.06837 74.1367,80.06837 40.9448,0 74.137,-35.84797 74.1367,-80.06837 -7e-4,-44.21963 -33.1926,-80.06636 -74.1367,-80.0664 z"
           style="opacity:1;fill:#000000;fill-opacity:1;stroke:#505050;stroke-width:0;stroke-linecap:butt;stroke-miterlimit:4;stroke-dasharray:none;stroke-dashoffset:0;stroke-opacity:1" />
      </g>
    </g>
    <g
       style="display:inline;fill:#f5f0de;fill-opacity:1"
       transform="matrix(1.7215901,0,0,1.7215901,-3.0066945,210.86943)"
       id="g5974"
       inkscape:export-xdpi="20.973156"
       inkscape:export-ydpi="20.973156">
      <path
         d="m 0.4979,396.38 c -0.095258,87.77 70.109,155.84 154.94,155.55 C 97.740685,544.28215 36.136697,491.01162 36.176697,399.08862 36.218227,304.80262 97.4589,248.42828 155.4379,242.31 72.5199,242.60564 0.5879,309.416 0.4979,396.38 Z"
         id="path5972"
         inkscape:connector-curvature="0"
         style="fill:#f5f0de;fill-opacity:1"
         sodipodi:nodetypes="ccccc" />
    </g>
  </g>
  <g
     inkscape:groupmode="layer"
     id="layer17"
     inkscape:label="City Lights"
     style="display:none;opacity:0.434"
     transform="translate(14.026526,-597.92898)">
    <circle
       style="display:inline;fill:#ffff00;stroke:none;stroke-width:20.5229;stroke-linejoin:round;stroke-miterlimit:4;stroke-dasharray:none;stroke-opacity:1"
       id="circle6034"
       r="18.767681"
       cy="801.33197"
       cx="158.91518"
       inkscape:export-xdpi="20.973156"
       inkscape:export-ydpi="20.973156" />
    <circle
       style="display:inline;fill:#ffff00;stroke:none;stroke-width:20.0995;stroke-linejoin:round;stroke-miterlimit:4;stroke-dasharray:none;stroke-opacity:1"
       id="circle6036"
       r="10.065322"
       cy="700.05414"
       cx="98.900963"
       inkscape:export-xdpi="20.973156"
       inkscape:export-ydpi="20.973156" />
    <circle
       style="display:inline;fill:#ffff00;stroke:none;stroke-width:13.5966;stroke-linejoin:round;stroke-miterlimit:4;stroke-dasharray:none;stroke-opacity:1"
       id="circle6038"
       r="11.319475"
       cy="704.92035"
       cx="155.0183"
       inkscape:export-xdpi="20.973156"
       inkscape:export-ydpi="20.973156" />
    <circle
       style="display:inline;fill:#ffff00;stroke:none;stroke-width:12.3817;stroke-linejoin:round;stroke-miterlimit:4;stroke-dasharray:none;stroke-opacity:1"
       id="circle6040"
       r="8.4082222"
       cy="761.01013"
       cx="197.35281"
       inkscape:export-xdpi="20.973156"
       inkscape:export-ydpi="20.973156" />
    <path
       style="display:inline;fill:#ffff00;stroke:none;stroke-width:23.1036;stroke-linejoin:round;stroke-miterlimit:4;stroke-dasharray:none;stroke-opacity:1"
       d="m 254.63615,733.10099 a 15.074888,15.074888 0 0 0 -15.07604,15.07605 15.074888,15.074888 0 0 0 15.07604,15.07316 15.074888,15.074888 0 0 0 15.07604,-15.07316 15.074888,15.074888 0 0 0 -15.07604,-15.07605 z"
       id="circle6042"
       inkscape:connector-curvature="0"
       inkscape:export-xdpi="20.973156"
       inkscape:export-ydpi="20.973156" />
    <path
       inkscape:connector-curvature="0"
       d="m 164.25142,871.52461 a 5.7042999,5.7042999 0 0 1 -5.7043,5.7043 5.7042999,5.7042999 0 0 1 -5.7043,-5.7043 5.7042999,5.7042999 0 0 1 5.7043,-5.7043 5.7042999,5.7042999 0 0 1 5.7043,5.7043 z m -11.21231,14.70001 a 8.2819996,8.2819996 0 0 1 -8.282,8.282 8.2819996,8.2819996 0 0 1 -8.282,-8.282 8.2819996,8.2819996 0 0 1 8.282,-8.282 8.2819996,8.2819996 0 0 1 8.282,8.282 z"
       style="display:inline;fill:#ffff00;stroke:none;stroke-width:10.3;stroke-linejoin:round;stroke-miterlimit:4;stroke-dasharray:none;stroke-opacity:1"
       id="path6048"
       inkscape:export-xdpi="20.973156"
       inkscape:export-ydpi="20.973156" />
    <circle
       style="display:inline;fill:#ffff00;stroke:none;stroke-width:16.0683;stroke-linejoin:round;stroke-miterlimit:4;stroke-dasharray:none;stroke-opacity:1"
       id="circle6050"
       cy="851.4892"
       cx="238.71791"
       inkscape:export-xdpi="20.973156"
       inkscape:export-ydpi="20.973156"
       r="8.4987831" />
    <circle
       style="display:inline;fill:#ffff00;stroke:none;stroke-width:14.0575;stroke-linejoin:round;stroke-miterlimit:4;stroke-dasharray:none;stroke-opacity:1"
       id="circle6052"
       r="8.0623064"
       cy="839.48456"
       cx="87.580627"
       inkscape:export-xdpi="20.973156"
       inkscape:export-ydpi="20.973156" />
    <circle
       style="display:inline;fill:#ffff00;stroke:none;stroke-width:19.2042;stroke-linejoin:round;stroke-miterlimit:4;stroke-dasharray:none;stroke-opacity:1"
       id="circle6054"
       r="12.495997"
       cy="649.70331"
       cx="135.19203"
       inkscape:export-xdpi="20.973156"
       inkscape:export-ydpi="20.973156" />
    <circle
       style="opacity:1;fill:#ffff46;fill-opacity:1;stroke:none;stroke-width:15.645;stroke-linecap:round;stroke-linejoin:round;stroke-miterlimit:4;stroke-dasharray:none;stroke-dashoffset:0;stroke-opacity:1"
       id="path6080"
       cx="171.2272"
       cy="744.02631"
       r="15.126933"
       inkscape:export-xdpi="20.973156"
       inkscape:export-ydpi="20.973156" />
    <circle
       r="17.019678"
       cy="680.16736"
       cx="212.52695"
       id="circle6082"
       style="opacity:1;fill:#ffff46;fill-opacity:1;stroke:none;stroke-width:17.6026;stroke-linecap:round;stroke-linejoin:round;stroke-miterlimit:4;stroke-dasharray:none;stroke-dashoffset:0;stroke-opacity:1"
       inkscape:export-xdpi="20.973156"
       inkscape:export-ydpi="20.973156" />
  </g>
  <g
     inkscape:groupmode="layer"
     id="layer1"
     inkscape:label="Lalande"
     transform="translate(1.7642975e-5,3.2901764e-5)">
    <path
       sodipodi:type="star"
       style="fill:#ffff8d;fill-opacity:1;stroke-width:1.13386;stroke-linecap:round"
       id="path1"
       inkscape:flatsided="false"
       sodipodi:sides="7"
       sodipodi:cx="129.84773"
       sodipodi:cy="170.80643"
       sodipodi:r1="13.612662"
       sodipodi:r2="6.8063312"
       sodipodi:arg1="0.69473828"
       sodipodi:arg2="1.1435372"
       inkscape:rounded="0.1"
       inkscape:randomized="0"
       d="m 140.30527,179.52104 c -0.51485,0.61782 -6.90522,-2.85339 -7.63714,-2.52014 -0.73193,0.33325 -2.30956,7.43235 -3.11359,7.41503 -0.80403,-0.0173 -2.07446,-7.17778 -2.79136,-7.54224 -0.71689,-0.36446 -7.25082,2.82832 -7.73859,2.1889 -0.48776,-0.63942 4.31841,-6.09715 4.15638,-6.88488 -0.16203,-0.78773 -6.73208,-3.9055 -6.53628,-4.68552 0.1958,-0.78002 7.45942,-0.42525 7.97427,-1.04307 0.51485,-0.61782 -1.14394,-7.69839 -0.41201,-8.03164 0.73192,-0.33326 4.98334,5.56687 5.78738,5.58419 0.80403,0.0173 5.30561,-5.69423 6.0225,-5.32977 0.7169,0.36446 -1.24529,7.36703 -0.75753,8.00645 0.48777,0.63942 7.75993,0.59779 7.92196,1.38552 0.16203,0.78773 -6.5362,3.61966 -6.73201,4.39968 -0.1958,0.78002 4.37087,6.43967 3.85602,7.05749 z"
       inkscape:transform-center-x="1.5674288"
       inkscape:transform-center-y="-1.9591321"
       transform="matrix(0.78314185,-0.10871769,0.11089271,0.79880946,133.85607,174.59169)" />
  </g>
  <g
     style="display:none;opacity:1"
     inkscape:label="City Lights copy"
     id="g6106"
     inkscape:groupmode="layer"
     transform="translate(14.026526,-597.92898)">
    <circle
       inkscape:export-ydpi="20.973156"
       inkscape:export-xdpi="20.973156"
       cx="158.10399"
       cy="801.33191"
       r="10.385522"
       id="circle6084"
       style="display:inline;fill:#ffff5b;fill-opacity:1;stroke:none;stroke-width:11.3568;stroke-linejoin:round;stroke-miterlimit:4;stroke-dasharray:none;stroke-opacity:1" />
    <circle
       inkscape:export-ydpi="20.973156"
       inkscape:export-xdpi="20.973156"
       cx="98.765762"
       cy="699.91895"
       r="5.3334579"
       id="circle6086"
       style="display:inline;fill:#ffff00;stroke:none;stroke-width:10.6504;stroke-linejoin:round;stroke-miterlimit:4;stroke-dasharray:none;stroke-opacity:1" />
    <circle
       inkscape:export-ydpi="20.973156"
       inkscape:export-xdpi="20.973156"
       cx="155.09749"
       cy="704.61719"
       r="5.3923941"
       id="circle6088"
       style="display:inline;fill:#ffff00;stroke:none;stroke-width:6.47716;stroke-linejoin:round;stroke-miterlimit:4;stroke-dasharray:none;stroke-opacity:1" />
    <circle
       inkscape:export-ydpi="20.973156"
       inkscape:export-xdpi="20.973156"
       cx="197.62321"
       cy="760.73975"
       r="3.5411623"
       id="circle6090"
       style="display:inline;fill:#ffff00;stroke:none;stroke-width:5.21462;stroke-linejoin:round;stroke-miterlimit:4;stroke-dasharray:none;stroke-opacity:1" />
    <path
       inkscape:connector-curvature="0"
       id="path6092"
       d="m 254.63615,738.83688 a 8.957078,8.957078 0 0 0 -8.95776,8.95777 8.957078,8.957078 0 0 0 8.95776,8.95605 8.957078,8.957078 0 0 0 8.95777,-8.95605 8.957078,8.957078 0 0 0 -8.95777,-8.95777 z"
       style="display:inline;fill:#ffff65;fill-opacity:1;stroke:none;stroke-width:13.7275;stroke-linejoin:round;stroke-miterlimit:4;stroke-dasharray:none;stroke-opacity:1"
       inkscape:export-xdpi="20.973156"
       inkscape:export-ydpi="20.973156" />
    <circle
       r="3.6317232"
       inkscape:export-ydpi="20.973156"
       inkscape:export-xdpi="20.973156"
       cx="238.44751"
       cy="851.4892"
       id="circle6096"
       style="display:inline;fill:#ffff00;stroke:none;stroke-width:6.86634;stroke-linejoin:round;stroke-miterlimit:4;stroke-dasharray:none;stroke-opacity:1" />
    <circle
       inkscape:export-ydpi="20.973156"
       inkscape:export-xdpi="20.973156"
       cx="87.715828"
       cy="839.21417"
       r="3.7360308"
       id="circle6098"
       style="display:inline;fill:#ffff00;stroke:none;stroke-width:6.51417;stroke-linejoin:round;stroke-miterlimit:4;stroke-dasharray:none;stroke-opacity:1" />
    <circle
       inkscape:export-ydpi="20.973156"
       inkscape:export-xdpi="20.973156"
       cx="135.38322"
       cy="649.89453"
       r="5.8041315"
       id="circle6100"
       style="display:inline;fill:#ffff00;stroke:none;stroke-width:8.91996;stroke-linejoin:round;stroke-miterlimit:4;stroke-dasharray:none;stroke-opacity:1" />
    <circle
       r="9.3910475"
       cy="743.64392"
       cx="171.2272"
       id="circle6102"
       style="opacity:1;fill:#ffff46;fill-opacity:1;stroke:none;stroke-width:9.71267;stroke-linecap:round;stroke-linejoin:round;stroke-miterlimit:4;stroke-dasharray:none;stroke-dashoffset:0;stroke-opacity:1"
       inkscape:export-xdpi="20.973156"
       inkscape:export-ydpi="20.973156" />
    <circle
       style="opacity:1;fill:#ffff46;fill-opacity:1;stroke:none;stroke-width:8.93334;stroke-linecap:round;stroke-linejoin:round;stroke-miterlimit:4;stroke-dasharray:none;stroke-dashoffset:0;stroke-opacity:1"
       id="circle6104"
       cx="212.48056"
       cy="679.89691"
       r="8.6375198"
       inkscape:export-xdpi="20.973156"
       inkscape:export-ydpi="20.973156" />
    <circle
       style="opacity:1;fill:#ffff46;fill-opacity:1;stroke:none;stroke-width:15.645;stroke-linecap:round;stroke-linejoin:round;stroke-miterlimit:4;stroke-dasharray:none;stroke-dashoffset:0;stroke-opacity:1"
       id="path6108"
       cx="144.65984"
       cy="886.23755"
       r="3.2447066"
       inkscape:export-xdpi="20.973156"
       inkscape:export-ydpi="20.973156" />
    <circle
       style="opacity:1;fill:#ffff46;fill-opacity:1;stroke:none;stroke-width:15.645;stroke-linecap:round;stroke-linejoin:round;stroke-miterlimit:4;stroke-dasharray:none;stroke-dashoffset:0;stroke-opacity:1"
       id="path6110"
       cx="158.31464"
       cy="871.77161"
       r="2.8391182"
       inkscape:export-xdpi="20.973156"
       inkscape:export-ydpi="20.973156" />
  </g>
  <g
     inkscape:groupmode="layer"
     id="layer6"
     inkscape:label="Text to Right"
     style="display:inline"
     transform="translate(14.026526,-597.92898)" />
  <g
     style="display:none"
     inkscape:label="Text Underneath"
     id="g6308"
     inkscape:groupmode="layer"
     transform="translate(14.026526,-597.92898)">
    <g
       id="g6306"
       transform="matrix(0.89481158,0,0,0.89481158,-207.4719,672.91269)"
       inkscape:export-xdpi="287.05127"
       inkscape:export-ydpi="287.05127"
       style="display:inline;fill:#000000;fill-opacity:1;stroke:#e0e0d9;stroke-opacity:1">
      <g
         style="fill:#000000;fill-opacity:1;stroke:#e0e0d9;stroke-opacity:1"
         id="g6304"
         transform="matrix(1.0017,0,0,0.99941,-34.427,-227.41)">
        <g
           style="fill:#000000;fill-opacity:1;stroke:#e0e0d9;stroke-opacity:1"
           id="g6302">
          <path
             sodipodi:nodetypes="ccccccccccccccssssssssssssssssssssccccccccccccccccccccccccccccccccccccccccccscsccccscscccscscsccccscscccccsscccssccsscccsscc"
             inkscape:connector-curvature="0"
             d="m 77.142,658.73 h 6.5765 l 16.416,-56.365 15.518,56.291 h 6.5519 l 15.175,-57.179 16.816,57.074 h 6.3823 l -19.504,-68.476 -6.9334,0.1046 -15.329,56.15 -15.111,-56.15 -7.1149,0.074 z M 247.94,624.4 c 0,19.547 -16.123,35.748 -35.748,35.748 -19.889,0 -35.841,-16.092 -35.841,-36.215 0,-19.173 16.419,-35.374 35.841,-35.374 19.625,0 35.748,16.092 35.748,35.841 z m -65.364,-0.29568 c 0,16.465 13.306,29.818 29.616,29.818 16.123,0 29.523,-13.353 29.523,-29.429 0,-16.263 -13.4,-29.709 -29.523,-29.709 -16.03,0 -29.616,13.446 -29.616,29.32 z M 341.316,624.4 c 0,19.547 -16.123,35.748 -35.748,35.748 -19.889,0 -35.841,-16.092 -35.841,-36.215 0,-19.173 16.419,-35.374 35.841,-35.374 19.625,0 35.748,16.092 35.748,35.841 z m -65.364,-0.29568 c 0,16.465 13.306,29.818 29.616,29.818 16.123,0 29.523,-13.353 29.523,-29.429 0,-16.263 -13.4,-29.709 -29.523,-29.709 -16.03,0 -29.616,13.446 -29.616,29.32 z m 90.264,-33.989 h 8.6062 l 38.082,56.804 v -56.804 h 6.2251 v 68.476 h -6.2251 l -40.463,-60.228 v 60.228 h -6.2251 z m 77.882,-0.32653 h 6.3979 l 16.416,56.365 15.518,-56.291 h 6.5519 l 15.175,57.179 16.816,-57.074 h 6.2038 l -19.42,68.476 -6.8384,-0.1046 -15.329,-56.15 -15.111,56.15 -7.0196,-0.074 z m 119.53,0.32654 h 7.7347 l 29.678,68.476 h -7.548 l -10.007,-23.344 h -32.122 l -10.069,23.344 h -7.2834 z m 17.166,38.907 -13.259,-31.172 -13.54,31.172 z m 85.113,29.569 h -7.9059 l -23.126,-31.032 c 7.6102,0 12.077,-0.35794 15.314,-1.1828 6.8788,-1.8831 10.412,-6.6609 10.412,-14.442 0,-6.2096 -2.599,-10.847 -7.2523,-13.073 -3.7195,-1.7742 -8.5284,-2.49 -15.781,-2.49 h -9.6489 v 62.22 h -6.2251 v -68.476 h 16.341 c 8.7774,0 14.567,1.0271 18.753,3.3304 6.5052,3.6261 10.038,10.116 10.038,18.753 0,12.123 -6.8165,19.453 -19.5,20.839 z m 24.262,-68.476 h 15.734 c 12.45,0 19.718,1.4785 26.208,5.3692 10.24,6.0384 15.641,16.232 15.641,29.118 0,12.793 -5.4781,22.784 -15.874,28.884 -6.054,3.5172 -13.306,5.1046 -23.624,5.1046 H 690.17 Z m 15.999,62.22 c 12.45,0 19.671,-1.743 25.29,-6.1006 6.4429,-5.0735 10.069,-12.964 10.069,-21.928 0,-10.194 -4.6376,-18.769 -12.746,-23.484 -5.2914,-3.1748 -11.968,-4.451 -22.613,-4.451 h -9.7734 v 55.964 z m 69.10345,-12.44324 c 0.58612,4.2798 1.84402,6.6142 4.37012,9.042 3.2535,3.1592 9.42183,4.98894 15.10013,4.98894 10.286,0 18.63713,-5.7582 18.63713,-13.695 0,-4.202 -2.1422,-8.46851 -6.103,-10.60061 -2.8695,-1.603 -9.65154,-3.28303 -15.54454,-4.28187 -7.21001,-1.1623 -11.6705,-3.13002 -15.00574,-5.92274 -3.3752,-2.74794 -5.78502,-7.4546 -5.78502,-12.217 0,-10.941 9.33187,-18.64648 23.29587,-18.64648 14.368,0 24.23,8.78429 24.574,19.033 l -7.16474,-0.14676 c -0.31345,-8.48401 -8.47666,-12.66124 -17.65126,-12.66124 -9.80583,0 -16.43413,5.50036 -16.43413,12.67476 0,3.1592 1.82373,6.09394 4.34973,7.86804 2.3645,1.5874 7.20818,3.14601 13.5997,4.2798 9.19555,1.65626 12.772,3.4549 16.369,5.4936 5.6382,3.2682 8.11917,8.83076 8.11917,14.88476 0,11.672 -10.44287,20.16224 -25.49887,20.16224 -15.662,0 -25.63987,-8.95767 -26.46887,-20.403 z"
             style="fill:#000000;fill-opacity:1;stroke:#e0e0d9;stroke-width:2.99326;stroke-miterlimit:4;stroke-dasharray:none;stroke-opacity:1"
             id="path6300" />
        </g>
      </g>
    </g>
  </g>
</svg>
